<?xml version="1.0" standalone="no"?>
<!DOCTYPE svg PUBLIC "-//W3C//DTD SVG 20010904//EN"
 "http://www.w3.org/TR/2001/REC-SVG-20010904/DTD/svg10.dtd">
<svg version="1.0" xmlns="http://www.w3.org/2000/svg"
 width="512.000000pt" height="512.000000pt" viewBox="0 0 512.000000 512.000000"
 preserveAspectRatio="xMidYMid meet">

<g transform="translate(0.000000,512.000000) scale(0.100000,-0.100000)"
fill="#000000" stroke="none">
<path d="M2451 5104 c-79 -21 -144 -60 -222 -132 -194 -180 -342 -484 -468
-969 l-11 -41 -88 24 c-700 195 -1178 132 -1329 -173 -34 -69 -38 -85 -41
-173 -5 -126 19 -227 93 -376 93 -191 244 -392 448 -596 l110 -110 -79 -79
-79 -80 -50 6 c-218 26 -380 -174 -311 -382 l16 -50 -55 -114 c-74 -155 -98
-253 -93 -378 3 -82 8 -106 35 -163 75 -161 214 -247 456 -284 209 -32 540 5
879 100 l88 24 11 -41 c127 -487 274 -789 471 -971 207 -193 449 -193 656 0
197 182 344 484 471 971 l11 41 68 -19 c37 -11 109 -30 160 -41 l94 -22 22
-50 c55 -122 191 -193 320 -166 87 18 140 59 202 158 1 2 38 8 81 13 242 30
392 118 470 276 34 69 38 85 41 173 5 126 -19 227 -93 376 -93 191 -244 392
-447 595 l-109 109 109 109 c203 203 354 404 447 595 74 149 98 250 93 376 -3
88 -7 104 -41 173 -151 305 -629 368 -1329 173 l-88 -24 -10 41 c-6 23 -26 95
-45 160 -19 64 -35 122 -35 128 0 6 11 25 25 43 54 71 70 179 39 269 -33 98
-137 177 -244 185 -54 4 -56 5 -95 59 -53 73 -169 181 -232 215 -101 55 -217
70 -322 42z m196 -224 c45 -20 126 -90 175 -152 l30 -38 -29 -57 c-53 -110
-33 -242 51 -326 44 -44 78 -63 148 -81 l52 -13 37 -129 c20 -71 40 -143 43
-160 l7 -31 -150 -57 c-82 -31 -214 -86 -292 -121 -79 -36 -150 -65 -159 -65
-9 0 -76 28 -150 61 -74 34 -205 88 -290 121 -85 33 -156 61 -158 62 -5 5 35
157 69 266 93 294 201 506 324 630 101 104 198 133 292 90z m-1403 -1025 c153
-24 436 -92 453 -109 4 -3 -5 -86 -20 -184 -15 -97 -31 -222 -37 -277 -21
-203 -3 -171 -159 -284 -76 -55 -191 -143 -255 -196 -65 -52 -121 -95 -126
-95 -11 0 -239 243 -311 329 -122 149 -229 333 -265 458 -19 65 -21 158 -4
208 22 67 117 131 231 154 30 6 63 13 74 15 38 9 320 -4 419 -19z m3066 15
c153 -25 264 -87 290 -165 17 -50 15 -143 -4 -208 -36 -125 -143 -309 -265
-458 -72 -86 -300 -329 -311 -329 -5 0 -61 43 -126 95 -64 53 -179 141 -255
196 -156 113 -138 81 -159 284 -6 55 -22 180 -37 277 -15 98 -24 181 -20 184
21 21 397 106 542 122 113 13 269 14 345 2z m-2158 -284 c46 -19 100 -42 122
-51 l38 -16 -149 -83 c-82 -46 -174 -99 -204 -118 -30 -19 -65 -41 -78 -48
l-24 -12 6 68 c4 38 16 133 28 211 l22 141 78 -28 c43 -16 116 -45 161 -64z
m1088 -128 c12 -81 20 -158 18 -173 l-3 -26 -75 47 c-41 26 -142 85 -223 130
l-148 82 48 22 c49 22 306 124 333 132 17 6 19 0 50 -214z m-597 -99 c158 -80
404 -222 573 -332 l71 -46 6 -107 c4 -59 7 -200 7 -314 0 -114 -3 -255 -7
-314 l-6 -107 -71 -46 c-170 -110 -415 -252 -574 -332 l-82 -41 -82 41 c-159
80 -404 222 -574 332 l-71 46 -6 107 c-9 138 -9 490 0 628 l6 107 71 46 c175
114 619 367 654 373 1 0 39 -19 85 -41z m-1038 -799 c0 -143 -1 -260 -3 -260
-10 0 -330 252 -331 260 0 5 29 29 212 172 62 48 114 87 117 88 3 0 5 -117 5
-260z m2021 180 c138 -105 223 -174 223 -180 0 -8 -320 -260 -331 -260 -2 0
-3 117 -3 260 0 143 1 260 3 260 2 0 51 -36 108 -80z m-2400 -425 c64 -53 179
-141 255 -196 156 -113 138 -81 159 -284 6 -55 22 -180 37 -277 15 -98 24
-181 20 -184 -23 -23 -400 -106 -559 -124 -261 -28 -464 5 -562 91 -52 46 -68
87 -68 173 0 69 41 203 85 279 l27 45 77 4 c91 4 140 25 196 81 74 74 99 181
68 290 l-14 48 74 75 c40 41 77 74 80 74 4 0 60 -43 125 -95z m2927 -37 c155
-165 213 -235 293 -355 141 -210 194 -387 154 -508 -12 -36 -70 -94 -119 -119
-30 -16 -121 -39 -197 -50 -36 -5 -42 -3 -52 19 -20 44 -86 108 -137 131 -108
51 -253 21 -328 -67 l-34 -39 -89 20 c-49 12 -119 30 -156 41 -80 23 -76 11
-48 184 11 66 27 183 35 260 27 250 6 210 164 324 76 55 191 143 255 196 65
52 121 95 126 95 5 0 65 -60 133 -132z m-2194 -476 c30 -19 122 -72 204 -118
l149 -83 -38 -16 c-125 -53 -214 -89 -283 -115 l-78 -28 -22 141 c-12 78 -24
173 -28 211 l-6 68 24 -12 c13 -7 48 -29 78 -48z m1298 -9 c-4 -38 -16 -132
-28 -210 l-22 -141 -78 28 c-69 26 -158 62 -283 115 l-38 16 148 83 c82 45
183 104 224 129 41 26 76 47 79 47 2 0 1 -30 -2 -67z m-547 -384 c74 -34 205
-88 290 -121 85 -33 156 -61 158 -62 9 -10 -76 -299 -129 -441 -133 -348 -313
-565 -469 -565 -156 0 -336 217 -469 565 -53 142 -138 431 -129 441 2 1 73 29
158 62 85 33 214 87 285 120 72 33 139 60 150 61 12 1 81 -27 155 -60z"/>
<path d="M2440 2994 c-148 -40 -276 -170 -315 -319 -86 -333 217 -636 550
-550 152 40 280 168 319 320 88 334 -220 639 -554 549z m215 -223 c84 -38 135
-117 135 -211 0 -131 -99 -230 -230 -230 -131 0 -230 99 -230 230 0 131 99
230 230 230 32 0 72 -8 95 -19z"/>
</g>
</svg>
